<svg xmlns="http://www.w3.org/2000/svg" viewBox="0 0 128 128">
  <defs>
    <linearGradient id="bg" x1="0" y1="0" x2="1" y2="1">
      <stop offset="0" stop-color="#526172"/>
      <stop offset="1" stop-color="#2d3745"/>
    </linearGradient>
  </defs>
  <rect x="4" y="4" width="120" height="120" rx="15" fill="url(#bg)" stroke="#91a0b3" stroke-width="6"/>
  <path d="M64 21c9 0 16 7 16 16 0 5-2 9-5 12l-5 5 24 28-10 31-20-23-20 23-10-31 24-28-5-5c-3-3-5-7-5-12 0-9 7-16 16-16zm0 9c-4 0-7 3-7 7 0 3 1 5 3 6l4 4 4-4c2-1 3-3 3-6 0-4-3-7-7-7z" fill="#05070a"/>
</svg>
