<svg xmlns="http://www.w3.org/2000/svg" viewBox="0 0 128 128">
  <defs>
    <linearGradient id="crystal" x1="0" y1="0" x2="1" y2="1">
      <stop offset="0" stop-color="#b9b4ff"/>
      <stop offset="0.45" stop-color="#6a63ff"/>
      <stop offset="1" stop-color="#3427a8"/>
    </linearGradient>
    <linearGradient id="metal" x1="0" y1="0" x2="1" y2="1">
      <stop offset="0" stop-color="#f5f7ff"/>
      <stop offset="1" stop-color="#9ca8bd"/>
    </linearGradient>
  </defs>
  <circle cx="64" cy="16" r="10" fill="none" stroke="url(#metal)" stroke-width="8"/>
  <path d="M45 32h38l14 18-33 68-33-68z" fill="url(#crystal)" stroke="#d8dcff" stroke-width="4"/>
  <path d="M45 32h38l9 14-28 12-28-12z" fill="url(#metal)"/>
  <path d="M64 58l12-5-12 55-12-55z" fill="#c9c5ff" opacity=".35"/>
  <path d="M43 58l12 8-9 28zM85 58l-12 8 9 28z" fill="#1d1684" opacity=".35"/>
  <path d="M64 40l5 8 8 4-8 4-5 8-5-8-8-4 8-4zM50 76l3 5 5 3-5 3-3 5-3-5-5-3 5-3zM81 75l4 7 7 4-7 4-4 7-4-7-7-4 7-4z" fill="#fff" opacity=".78"/>
</svg>
